<svg xmlns="http://www.w3.org/2000/svg" xmlns:xlink="http://www.w3.org/1999/xlink" contentStyleType="text/css" height="462px" preserveAspectRatio="none" style="width:388px;height:462px;background:#FFFFFF;" version="1.1" viewBox="0 0 388 462" width="388px" zoomAndPan="magnify"><defs/><g><ellipse cx="147" cy="20" fill="#87CEFA" rx="10" ry="10" style="stroke:#222222;stroke-width:1;"/><rect fill="#FFFFFF" height="33.9688" rx="12.5" ry="12.5" style="stroke:#87CEFA;stroke-width:0.5;" width="140" x="77" y="50"/><text fill="#000000" font-family="Microsoft YaHei" font-size="12" lengthAdjust="spacing" textLength="120" x="87" y="71.1387">扫描二维码进入小程序</text><path d="M255,115.3711 L255,123.9375 L235,127.9375 L255,131.9375 L255,140.5039 A0,0 0 0 0 255,140.5039 L328,140.5039 A0,0 0 0 0 328,140.5039 L328,125.3711 L318,115.3711 L255,115.3711 A0,0 0 0 0 255,115.3711 " fill="#FEFFDD" style="stroke:#181818;stroke-width:0.5;"/><path d="M318,115.3711 L318,125.3711 L328,125.3711 L318,115.3711 " fill="#FEFFDD" style="stroke:#181818;stroke-width:0.5;"/><text fill="#000000" font-family="Microsoft YaHei" font-size="13" lengthAdjust="spacing" textLength="52" x="261" y="132.438">必选步骤</text><rect fill="#FFFFFF" height="47.9375" rx="12.5" ry="12.5" style="stroke:#87CEFA;stroke-width:0.5;" width="176" x="59" y="103.9688"/><text fill="#000000" font-family="Microsoft YaHei" font-size="12" lengthAdjust="spacing" textLength="96" x="69" y="125.1074">点击选择症状信息</text><text fill="#000000" font-family="Microsoft YaHei" font-size="12" lengthAdjust="spacing" textLength="156" x="69" y="139.0762">获得基于知识图谱的症状分析</text><path d="M255,183.3086 L255,191.875 L235,195.875 L255,199.875 L255,208.4414 A0,0 0 0 0 255,208.4414 L328,208.4414 A0,0 0 0 0 328,208.4414 L328,193.3086 L318,183.3086 L255,183.3086 A0,0 0 0 0 255,183.3086 " fill="#FEFFDD" style="stroke:#181818;stroke-width:0.5;"/><path d="M318,183.3086 L318,193.3086 L328,193.3086 L318,183.3086 " fill="#FEFFDD" style="stroke:#181818;stroke-width:0.5;"/><text fill="#000000" font-family="Microsoft YaHei" font-size="13" lengthAdjust="spacing" textLength="52" x="261" y="200.3755">可选步骤</text><rect fill="#FFFFFF" height="47.9375" rx="12.5" ry="12.5" style="stroke:#87CEFA;stroke-width:0.5;" width="176" x="59" y="171.9063"/><text fill="#000000" font-family="Microsoft YaHei" font-size="12" lengthAdjust="spacing" textLength="72" x="69" y="193.0449">完成推荐量表</text><text fill="#000000" font-family="Microsoft YaHei" font-size="12" lengthAdjust="spacing" textLength="156" x="69" y="207.0137">获得单个量表结果和综合分析</text><path d="M225,251.2461 L225,259.8125 L205,263.8125 L225,267.8125 L225,276.3789 A0,0 0 0 0 225,276.3789 L298,276.3789 A0,0 0 0 0 298,276.3789 L298,261.2461 L288,251.2461 L225,251.2461 A0,0 0 0 0 225,251.2461 " fill="#FEFFDD" style="stroke:#181818;stroke-width:0.5;"/><path d="M288,251.2461 L288,261.2461 L298,261.2461 L288,251.2461 " fill="#FEFFDD" style="stroke:#181818;stroke-width:0.5;"/><text fill="#000000" font-family="Microsoft YaHei" font-size="13" lengthAdjust="spacing" textLength="52" x="231" y="268.313">可选步骤</text><rect fill="#FFFFFF" height="47.9375" rx="12.5" ry="12.5" style="stroke:#87CEFA;stroke-width:0.5;" width="116" x="89" y="239.8438"/><text fill="#000000" font-family="Microsoft YaHei" font-size="12" lengthAdjust="spacing" textLength="72" x="99" y="260.9824">拍照上传病历</text><text fill="#000000" font-family="Microsoft YaHei" font-size="12" lengthAdjust="spacing" textLength="96" x="99" y="274.9512">获得病历分析结果</text><path d="M303,312.1992 L303,320.7656 L283,324.7656 L303,328.7656 L303,337.332 A0,0 0 0 0 303,337.332 L376,337.332 A0,0 0 0 0 376,337.332 L376,322.1992 L366,312.1992 L303,312.1992 A0,0 0 0 0 303,312.1992 " fill="#FEFFDD" style="stroke:#181818;stroke-width:0.5;"/><path d="M366,312.1992 L366,322.1992 L376,322.1992 L366,312.1992 " fill="#FEFFDD" style="stroke:#181818;stroke-width:0.5;"/><text fill="#000000" font-family="Microsoft YaHei" font-size="13" lengthAdjust="spacing" textLength="52" x="309" y="329.2661">必选步骤</text><rect fill="#FFFFFF" height="33.9688" rx="12.5" ry="12.5" style="stroke:#87CEFA;stroke-width:0.5;" width="272" x="11" y="307.7813"/><text fill="#000000" font-family="Microsoft YaHei" font-size="12" lengthAdjust="spacing" textLength="252" x="21" y="328.9199">获得基于知识图谱、量表、病历的综合分析结果</text><path d="M243,373.1523 L243,381.7188 L223,385.7188 L243,389.7188 L243,398.2852 A0,0 0 0 0 243,398.2852 L316,398.2852 A0,0 0 0 0 316,398.2852 L316,383.1523 L306,373.1523 L243,373.1523 A0,0 0 0 0 243,373.1523 " fill="#FEFFDD" style="stroke:#181818;stroke-width:0.5;"/><path d="M306,373.1523 L306,383.1523 L316,383.1523 L306,373.1523 " fill="#FEFFDD" style="stroke:#181818;stroke-width:0.5;"/><text fill="#000000" font-family="Microsoft YaHei" font-size="13" lengthAdjust="spacing" textLength="52" x="249" y="390.2192">可选步骤</text><rect fill="#FFFFFF" height="47.9375" rx="12.5" ry="12.5" style="stroke:#87CEFA;stroke-width:0.5;" width="152" x="71" y="361.75"/><text fill="#000000" font-family="Microsoft YaHei" font-size="12" lengthAdjust="spacing" textLength="132" x="81" y="382.8887">与智能问诊助手进行问答</text><text fill="#000000" font-family="Microsoft YaHei" font-size="12" lengthAdjust="spacing" textLength="72" x="81" y="396.8574">获取相应建议</text><ellipse cx="147" cy="440.6875" fill="none" rx="11" ry="11" style="stroke:#222222;stroke-width:1;"/><ellipse cx="147" cy="440.6875" fill="#222222" rx="6" ry="6" style="stroke:#222222;stroke-width:1;"/><line style="stroke:#87CEFA;stroke-width:1;" x1="147" x2="147" y1="30" y2="50"/><polygon fill="#87CEFA" points="143,40,147,50,151,40,147,44" style="stroke:#87CEFA;stroke-width:1;"/><line style="stroke:#87CEFA;stroke-width:1;" x1="147" x2="147" y1="83.9688" y2="103.9688"/><polygon fill="#87CEFA" points="143,93.9688,147,103.9688,151,93.9688,147,97.9688" style="stroke:#87CEFA;stroke-width:1;"/><line style="stroke:#87CEFA;stroke-width:1;" x1="147" x2="147" y1="151.9063" y2="171.9063"/><polygon fill="#87CEFA" points="143,161.9063,147,171.9063,151,161.9063,147,165.9063" style="stroke:#87CEFA;stroke-width:1;"/><line style="stroke:#87CEFA;stroke-width:1;" x1="147" x2="147" y1="219.8438" y2="239.8438"/><polygon fill="#87CEFA" points="143,229.8438,147,239.8438,151,229.8438,147,233.8438" style="stroke:#87CEFA;stroke-width:1;"/><line style="stroke:#87CEFA;stroke-width:1;" x1="147" x2="147" y1="287.7813" y2="307.7813"/><polygon fill="#87CEFA" points="143,297.7813,147,307.7813,151,297.7813,147,301.7813" style="stroke:#87CEFA;stroke-width:1;"/><line style="stroke:#87CEFA;stroke-width:1;" x1="147" x2="147" y1="341.75" y2="361.75"/><polygon fill="#87CEFA" points="143,351.75,147,361.75,151,351.75,147,355.75" style="stroke:#87CEFA;stroke-width:1;"/><line style="stroke:#87CEFA;stroke-width:1;" x1="147" x2="147" y1="409.6875" y2="429.6875"/><polygon fill="#87CEFA" points="143,419.6875,147,429.6875,151,419.6875,147,423.6875" style="stroke:#87CEFA;stroke-width:1;"/><!--SRC=[VP3TIW917CNlzoa6UeX2hqgIRkgcgw2RGLTRqXsP7Ok8G2k_TLVAaZ8g8KaBFu8eMoiVffqFtwAr9T4mvshc_0-__pcZRIjg168O1duv0ACXuaKgMODX6QmgFemq521W0wx8YgIDdDeMzADTHGs200nfiZGsWZwYx2Xa3-nB0AmJY8a7XH06SmlpdcNleYqkg_w_qXBqRGSnYeuctfypd23ib_5V_oB6Q7TIFB133BT9BfPvP8PXcNdUU-QtST6lq4IDTWnUpr7JS4ikVlX6Kxr1BCDo3LvEyUoBrQ-oU7jJ5Veh_IpJ6zCoTNvJ4-qahNoApXE_F7QCD9rarqMtf28Y0wm4juWBq7vYo6hM1WztaeksyYnTP7fT58g3b26gzH6sS6Pr7noDzqxPzHKziJE-qs9wAjPeZs5Phi0JzrOtQxtVydA2wibVhFDo20vs5kU_Xb-nk9FClZZ4OUUnS5FH4ysjhiukJ77qCIYtH3jBimsMoTc_BwfvM-7DafFOEEULBZLBj6UALcj6LesWo3S0]--></g></svg>